SplineFontDB: 3.0
FontName: BulmerStM
FullName: Sorts Mill Bulmer
FamilyName: Sorts Mill Bulmer
Weight: Regular
Copyright: Created by trashman with FontForge 2.0 (http://fontforge.sf.net)
UComments: "2011-1-31: Created." 
Version: 0.1
ItalicAngle: 0
UnderlinePosition: -100
UnderlineWidth: 50
Ascent: 800
Descent: 200
LayerCount: 3
Layer: 0 0 "Back"  1
Layer: 1 0 "Fore"  0
Layer: 2 0 "backup"  0
NeedsXUIDChange: 1
XUID: [1021 658 797806517 5297306]
FSType: 0
OS2Version: 0
OS2_WeightWidthSlopeOnly: 0
OS2_UseTypoMetrics: 1
CreationTime: 1296525662
ModificationTime: 1297506389
OS2TypoAscent: 0
OS2TypoAOffset: 1
OS2TypoDescent: 0
OS2TypoDOffset: 1
OS2TypoLinegap: 90
OS2WinAscent: 0
OS2WinAOffset: 1
OS2WinDescent: 0
OS2WinDOffset: 1
HheadAscent: 0
HheadAOffset: 1
HheadDescent: 0
HheadDOffset: 1
OS2Vendor: 'PfEd'
MarkAttachClasses: 1
DEI: 91125
Encoding: UnicodeBmp
UnicodeInterp: none
NameList: Adobe Glyph List
DisplaySize: -48
AntiAlias: 1
FitToEm: 1
WinInfo: 96 12 6
BeginPrivate: 8
BlueValues 7 [-18 0]
BlueFuzz 1 0
BlueScale 8 0.039625
BlueShift 1 7
StdHW 4 [44]
StemSnapH 32 [11 27 31 37 44 48 52 60 91 113]
StdVW 4 [85]
StemSnapV 14 [80 85 90 168]
EndPrivate
BeginChars: 65536 63

StartChar: a
Encoding: 97 97 0
Width: 388
VWidth: 0
Flags: W
HStem: -8 52<100 192.561 341.785 372.401> -7 39<296.5 368.596> 206 20<201.035 239> 363 19<133.855 209.68>
VStem: 37 82<58.0479 140.77 283.233 349.519> 239 80<60.1182 206 223.072 340.2>
LayerCount: 3
Fore
SplineSet
317 -7 m 0x7c
 276 -7 252 17 239 51 c 1
 200 16 168 -8 128 -8 c 0xbc
 72 -8 37 29 37 75 c 0
 37 126 66 196 239 226 c 1
 239 270 l 2
 239 321 238 363 166 363 c 0
 142 363 119 350 116 325 c 0
 113 306 111 278 76 278 c 0
 54 278 38 292 38 313 c 0
 38 356 108 382 168 382 c 0
 302 382 319 313 319 292 c 2
 319 76 l 2
 319 40 330 32 341 32 c 0
 358 32 358 46 366 48 c 0
 376 51 383 48 383 36 c 0
 383 19 362 -7 317 -7 c 0x7c
180 44 m 0
 216 44 239 86 239 86 c 1
 239 206 l 1
 162 194 119 159 119 117 c 0
 119 82 133 44 180 44 c 0
EndSplineSet
EndChar

StartChar: b
Encoding: 98 98 1
Width: 470
VWidth: 0
Flags: W
HStem: -9 32<199.864 304.268> 3 29<25.0374 76.8586> 359 26<215.631 306.763> 607 25<29.0574 75.6131>
VStem: 82 74<44.7609 52 57.8359 309.667 315 552.25> 365 90<99.9032 279.595>
LayerCount: 3
Fore
SplineSet
365 189 m 0xbc
 365 273 346 359 259 359 c 0
 199 359 158 308 158 228 c 2
 158 169 l 2
 158 93 161 23 255 23 c 0
 337 23 365 120 365 189 c 0xbc
154 315 m 1
 154 315 185 385 276 385 c 0
 371 385 455 293 455 198 c 0
 455 76 369 -9 260 -9 c 0xbc
 183 -9 156 52 156 52 c 1
 156 11 l 2
 156 6 153 -2 146 -2 c 0
 134 -2 128 3 106 4 c 0
 86 4 64 3 42 3 c 0
 38 3 25 4 25 16 c 0
 25 28 30 32 42 32 c 0x7c
 70 32 74 35 77 44 c 0
 82 60 82 91 82 126 c 2
 82 472 l 2
 82 532 82 565 78 589 c 0
 76 602 59 603 39 607 c 0
 34 608 29 612 29 621 c 0
 29 628 32 631 40 632 c 0
 127 646 140 650 145 650 c 0
 157 650 162 647 162 638 c 0
 162 628 154 527 154 315 c 1
EndSplineSet
EndChar

StartChar: h
Encoding: 104 104 2
Width: 510
VWidth: 0
Flags: W
HStem: -1 30<28.0761 81.1328 163.757 217.938 283.006 337.215 420.093 476.995> 347 27<228.126 312.756> 607 39<36.9898 92.869>
VStem: 93 81<385.203 606.998> 340 79<37.4688 329.07>
LayerCount: 3
Fore
SplineSet
460 29 m 2
 470 29 477 28 477 14 c 0
 477 4 476 -1 464 -1 c 0
 419 -1 342 0 298 0 c 0
 283 0 283 8 283 15 c 0
 283 27 291 28 300 28 c 2
 335 28 l 2
 339 28 340 151 340 215 c 0
 340 279 338 347 276 347 c 0
 191 347 164 280 164 263 c 0
 164 250 162 175 162 114 c 0
 162 68 163 30 167 30 c 0
 172 30 195 29 205 29 c 0
 213 29 218 26 218 18 c 0
 218 2 216 1 201 1 c 0
 127 0 51 -1 48 -1 c 0
 30 -1 28 2 28 18 c 0
 28 27 32 30 46 30 c 2
 80 30 l 2
 82 30 93 337 93 582 c 0
 93 604 88 607 79 607 c 0
 75 607 50 604 46 604 c 0
 39 604 34 609 34 618 c 0
 34 625 37 629 46 630 c 0
 94 635 151 646 156 646 c 0
 164 646 174 643 174 632 c 2
 174 632 165 366 165 313 c 1
 189 342 230 374 299 374 c 0
 368 374 419 335 419 283 c 0
 419 61 420 29 421 29 c 2
 460 29 l 2
EndSplineSet
EndChar

StartChar: c
Encoding: 99 99 3
Width: 432
VWidth: -5
Flags: W
HStem: -8 43<188.605 318.404> 367 21<209.739 298.451>
VStem: 38 93<95.104 265.918> 317 70<267.564 352.813>
LayerCount: 3
Fore
SplineSet
245 388 m 0
 311 388 387 365 387 306 c 0
 387 279 371 264 347 264 c 0
 332 264 317 277 317 295 c 0
 317 305 320 312 320 325 c 0
 320 349 292 367 260 367 c 0
 174 367 131 296 131 186 c 0
 131 103 174 35 256 35 c 0
 310 35 332 60 345 78 c 0
 361 101 358 105 368 105 c 0
 374 105 385 102 385 91 c 0
 385 82 381 73 376 64 c 0
 355 27 297 -8 234 -8 c 0
 124 -8 38 69 38 189 c 0
 38 280 136 388 245 388 c 0
EndSplineSet
EndChar

StartChar: d
Encoding: 100 100 4
Width: 496
VWidth: -1
Flags: W
HStem: -12 37<181.133 280.553> -4 21G<360.5 367> 8 23<427.914 475.988> 355 25<194.776 288.814> 612 44<278.715 339.461>
VStem: 36 85<87.5254 274.383> 339 82<220.899 326.909 328 611.996> 343 71<65.7615 321.896 328 611.996>
LayerCount: 3
Fore
SplineSet
216 -12 m 0x9d
 105 -12 36 63 36 183 c 0
 36 286 110 380 226 380 c 0
 272 380 310 365 344 328 c 1
 344 529 339 599 339 599 c 2
 339 607 332 612 324 612 c 0
 318 612 299 610 294 610 c 0
 288 610 277 612 277 625 c 0
 277 638 284 640 287 640 c 0
 387 649 399 656 410 656 c 0
 419 656 421 649 421 646 c 2x9e
 421 646 414 443 414 210 c 0
 414 95 419 46 431 39 c 0
 438 35 436 32 468 31 c 0
 472 31 476 27 476 20 c 0
 476 15 475 8 471 8 c 0x3d
 394 5 372 -4 362 -4 c 0x5d
 359 -4 349 1 348 6 c 0
 346 24 345 30 341 59 c 1
 319 25 266 -12 216 -12 c 0x9d
242 25 m 0
 262 25 343 28 343 155 c 2
 343 260 l 2x9d
 343 316 304 355 241 355 c 0
 163 355 121 270 121 178 c 0
 121 93 168 25 242 25 c 0
EndSplineSet
EndChar

StartChar: e
Encoding: 101 101 5
Width: 407
VWidth: 0
Flags: W
HStem: -9 48<181.597 305.304> 239 23<130 281.542> 362 27<176.975 260.13>
VStem: 34 87<107.246 236.578> 289 75<247 325.81> 332 39<62.6814 118.035>
LayerCount: 3
Fore
SplineSet
216 389 m 0xf4
 305 389 364 327 364 254 c 0xf8
 364 240 354 234 336 234 c 0
 322 234 261 237 125 239 c 1
 122 224 121 218 121 207 c 0
 121 109 171 39 246 39 c 0
 294 39 320 64 332 87 c 0
 337 97 344 119 355 119 c 0
 364 119 371 114 371 106 c 0
 371 101 371 91 366 78 c 0
 352 42 306 -9 214 -9 c 0
 95 -9 34 82 34 175 c 0
 34 283 107 389 216 389 c 0xf4
289 296 m 0
 289 338 252 362 219 362 c 0
 179 362 138 328 130 262 c 1
 181 262 216 262 264 265 c 0
 287 266 289 290 289 296 c 0
EndSplineSet
EndChar

StartChar: f
Encoding: 102 102 6
Width: 282
VWidth: 3
Flags: W
HStem: 0 30<44.176 91.0783 173.749 234.979> 329 29<48.1243 94 172 240.98> 619 22<220.289 273.31>
VStem: 95 77<30 329 358 553.306> 273 86<539.062 618.625>
LayerCount: 3
Fore
SplineSet
317 534 m 0
 288 534 273 551 273 576 c 0
 273 586 274 598 274 605 c 0
 274 610 274 619 260 619 c 0
 181 619 172 545 172 358 c 1
 229 358 l 2
 234 358 241 357 241 345 c 0
 241 332 239 329 228 329 c 2
 172 329 l 1
 172 96 l 2
 172 45 174 30 181 30 c 2
 217 30 l 2
 232 30 235 23 235 14 c 0
 235 0 228 -2 221 -2 c 0
 210 -2 182 0 150 0 c 2
 119 0 l 2
 93 0 65 -2 59 -2 c 0
 54 -2 44 -2 44 11 c 0
 44 26 48 30 65 30 c 2
 85 30 l 2
 93 30 95 79 95 138 c 2
 95 329 l 1
 62 329 l 2
 59 329 48 328 48 340 c 0
 48 357 53 358 62 358 c 2
 94 358 l 1
 94 447 l 2
 94 567 158 641 262 641 c 0
 341 641 359 602 359 579 c 0
 359 550 340 534 317 534 c 0
EndSplineSet
EndChar

StartChar: g
Encoding: 103 103 7
Width: 436
VWidth: 0
Flags: W
HStem: -267 31<155.534 298.326> -48 74<193 322.971> 102 19<159.281 221.169> 354 19<162.945 222.194 312.95 378.5>
VStem: 39 64<-197.912 -82.6926> 42 81<159.573 307.844> 90 43<10 84.6055> 258 75<160.051 302.964> 365 58<-183.521 -82.9989>
LayerCount: 3
Fore
SplineSet
224 -267 m 0xf380
 150 -267 39 -236 39 -140 c 0xf980
 39 -59 96 -47 151 -42 c 1
 109 -23 90 -12 90 32 c 0xf380
 90 72 119 98 144 106 c 1
 131 112 42 131 42 234 c 0xf580
 42 314 108 373 189 373 c 0
 246 373 277 341 279 341 c 0
 285 341 317 378 363 378 c 0
 394 378 423 361 423 327 c 0
 423 303 406 297 392 297 c 0
 374 297 363 311 354 331 c 0
 346 349 342 353 333 353 c 0
 312 353 293 333 293 329 c 0
 293 325 333 287 333 235 c 0
 333 137 254 102 193 102 c 2
 184 102 l 2
 172 102 133 97 133 64 c 0
 133 32 160 26 200 26 c 2
 279 26 l 2
 360 26 423 -8 423 -101 c 0
 423 -231 305 -267 224 -267 c 0xf380
258 233 m 0
 258 277 248 354 194 354 c 0
 138 354 123 284 123 217 c 0xf580
 123 172 142 121 190 121 c 0
 247 121 258 186 258 233 c 0
103 -144 m 0xf980
 103 -202 158 -236 227 -236 c 0
 324 -236 365 -174 365 -131 c 0
 365 -40 240 -63 193 -48 c 1
 193 -58 177 -63 168 -64 c 0
 138 -67 103 -85 103 -144 c 0xf980
EndSplineSet
EndChar

StartChar: i
Encoding: 105 105 8
Width: 268
VWidth: -2
Flags: W
LayerCount: 3
Fore
SplineSet
191 599 m 0xf0
 191 562 168 546 145 546 c 0
 116 546 91 562 91 597 c 0
 91 629 116 648 142 648 c 0
 163 648 191 633 191 599 c 0xf0
96 29 m 2
 103 29 103 125 103 155 c 2
 103 233 l 2
 103 262 103 301 101 324 c 0
 100 333 97 339 92 339 c 2
 60 339 l 2
 51 339 47 340 47 353 c 0
 47 365 59 365 68 365 c 0
 100 365 169 372 176 372 c 0
 186 372 187 356 187 350 c 2
 187 350 183 288 183 132 c 2
 183 93 l 2xe8
 183 57 184 31 188 31 c 2
 212 31 l 2
 228 31 243 31 243 16 c 0
 243 6 240 1 226 1 c 2
 56 0 l 2
 53 0 42 1 42 15 c 0
 42 26 45 29 60 29 c 2
 96 29 l 2
EndSplineSet
EndChar

StartChar: j
Encoding: 106 106 9
Width: 287
VWidth: 2
Flags: W
LayerCount: 3
Fore
SplineSet
154 650 m 0xf8
 180 650 202 632 202 600 c 0
 202 564 177 547 152 547 c 0
 120 547 103 573 103 599 c 0
 103 624 119 650 154 650 c 0xf8
76 358 m 0
 168 372 183 376 188 376 c 0
 191 376 199 372 199 362 c 0
 199 354 196 329 196 162 c 2
 196 -74 l 2
 196 -142 156 -237 18 -237 c 0
 -24 -237 -72 -223 -72 -180 c 0
 -72 -147 -42 -130 -25 -130 c 0
 0 -130 11 -152 14 -192 c 0
 15 -204 19 -212 40 -212 c 0
 116 -212 118 -115 118 -40 c 2
 118 101 l 2xf4
 118 173 118 245 116 308 c 0
 116 316 116 333 100 333 c 0
 97 333 75 330 71 330 c 0
 64 330 60 332 60 342 c 0
 60 354 67 357 76 358 c 0
EndSplineSet
EndChar

StartChar: k
Encoding: 107 107 10
Width: 445
VWidth: 0
Flags: W
HStem: -1 28<17.0319 67.1538 152.108 201.892 229.069 269.997 376.958 441.898> 334 27<325.639 381.934> 605 26<14.0796 49.8024> 608 38<18.2124 67.9004>
VStem: 74 75<27 158.993 208.37 595.875>
LayerCount: 3
Fore
SplineSet
239 361 m 2xd8
 356 361 l 2
 372 361 382 358 382 349 c 0
 382 341 380 341 352 334 c 0
 310 324 237 244 214 219 c 0
 204 209 211 204 221 194 c 0
 271 147 369 36 397 29 c 0
 427 22 442 28 442 11 c 0
 442 -1 433 -2 428 -2 c 0
 400 -2 345 -1 247 0 c 0
 234 0 229 3 229 15 c 0
 229 24 235 27 243 27 c 2
 254 27 l 2
 266 27 270 29 270 33 c 0
 270 37 265 43 261 48 c 0
 247 67 233 82 217 102 c 0
 194 130 170 159 164 159 c 0
 153 159 149 149 149 145 c 2
 149 80 l 2
 149 53 149 27 168 27 c 0
 177 27 185 26 193 26 c 0
 199 26 202 22 202 16 c 0
 202 7 200 0 191 0 c 0
 137 0 66 -1 26 -1 c 0
 19 -1 17 7 17 14 c 0
 17 27 28 27 39 27 c 2
 62 27 l 2
 72 27 74 136 74 235 c 0
 74 305 73 371 73 390 c 0
 73 487 73 574 68 597 c 0
 66 608 56 608 50 608 c 0xd8
 46 608 28 605 25 605 c 0
 21 605 14 607 14 615 c 0
 14 624 15 629 32 631 c 0xe8
 78 637 124 646 138 646 c 0
 152 646 155 642 155 633 c 0
 155 595 149 576 149 212 c 0
 149 186 151 191 158 196 c 0
 166 202 236 276 248 291 c 0
 251 294 260 305 260 317 c 0
 260 338 220 338 220 351 c 0
 220 360 227 361 239 361 c 2xd8
EndSplineSet
EndChar

StartChar: l
Encoding: 108 108 11
Width: 290
VWidth: -1
Flags: W
LayerCount: 3
Fore
SplineSet
98 608 m 0xa8
 94 608 76 606 72 606 c 0
 66 606 58 608 58 618 c 0
 58 632 64 632 80 634 c 0xc8
 137 640 171 647 189 647 c 0
 198 647 201 640 201 631 c 2xa8
 201 631 193 518 193 103 c 0
 193 71 194 29 199 29 c 2
 249 29 l 2
 263 29 266 25 266 14 c 0
 266 -1 260 -2 249 -2 c 0
 236 -2 204 1 167 1 c 2
 138 1 l 2
 87 1 60 -1 50 -1 c 0
 45 -1 38 1 38 13 c 0
 38 28 46 29 53 29 c 0
 68 29 86 28 101 28 c 0
 106 28 108.093408205 48.1208984614 111 83 c 0xb0
 114 119 120 490 120 575 c 0
 120 608 110 608 98 608 c 0xa8
EndSplineSet
EndChar

StartChar: m
Encoding: 109 109 12
Width: 714
VWidth: 1
Flags: WO
HStem: 0 32<30.1327 86.1161 172.063 221.996 272.059 317.047 404.236 461.98 504.023 554.302 641.033 696.974> 334 26<33.0022 78.7656> 349 29<231.027 301.814 455.711 532.224>
VStem: 88 80<33.2666 297.852> 323 80<33.1986 314.512> 557 81<32.0275 330.154>
LayerCount: 3
Fore
SplineSet
272 18 m 0xbc
 272 32 281 33 289 33 c 2
 312 33 l 2
 322 33 323 153 323 215 c 2
 323 240 l 2
 323 299 316 349 266 349 c 0xbc
 238 349 210 329 197 310 c 0
 175 279 168 237 168 180 c 0
 168 144 171 32 174 32 c 2
 209 32 l 2
 222 32 222 23 222 16 c 0
 222 2 217 0 211 0 c 2
 123 0 l 2
 95 0 69 -1 46 -1 c 0
 35 -1 30 5 30 13 c 0
 30 28 37 33 48 33 c 2
 79 33 l 2
 88 33 88 68 88 89 c 2
 88 268 l 2
 88 295 88 321 79 328 c 0
 74 332 69 331 47 334 c 0
 36 335 33 335 33 347 c 0
 33 353 36 359 45 360 c 0xdc
 90 365 147 377 152 377 c 0
 164 377 164 365 165 349 c 2
 167 307 l 1
 178 322 216 378 292 378 c 0
 367 378 397 318 397 318 c 1
 417 340 452 378 525 378 c 0
 605 378 642 329 642 250 c 0
 642 204 638 173 638 113 c 0
 638 88 638 32 648 32 c 2
 679 32 l 2
 690 32 697 26 697 15 c 0
 697 -2 688 -2 680 -2 c 0
 668 -2 633 0 601 0 c 0
 578 0 536 -2 528 -2 c 0
 512 -2 504 1 504 14 c 0
 504 22 504 31 518 31 c 2
 547 31 l 2
 556 31 557 71 557 118 c 2
 557 144 l 2
 557 201 556 261 556 277 c 0
 556 312 536 348 494 348 c 0
 458 348 420 318 413 296 c 0
 407 276 403 219 403 150 c 2
 403 78 l 2
 403 53 403 32 415 32 c 2
 450 32 l 2
 455 32 462 26 462 18 c 0
 462 9 462 0 435 -0 c 0
 394 0 309 -1 293 -1 c 0
 281 -1 272 -1 272 18 c 0xbc
EndSplineSet
EndChar

StartChar: n
Encoding: 110 110 13
Width: 298
VWidth: 0
Flags: W
HStem: 220 168<95.6758 208.324>
VStem: 68 168<247.676 360.324>
LayerCount: 3
Fore
SplineSet
68 304 m 0
 68 350 106 388 152 388 c 0
 198 388 236 350 236 304 c 0
 236 258 198 220 152 220 c 0
 106 220 68 258 68 304 c 0
EndSplineSet
Validated: 1
EndChar

StartChar: o
Encoding: 111 111 14
Width: 298
VWidth: 0
Flags: W
HStem: 220 168<95.6758 208.324>
VStem: 68 168<247.676 360.324>
LayerCount: 3
Fore
SplineSet
68 304 m 0
 68 350 106 388 152 388 c 0
 198 388 236 350 236 304 c 0
 236 258 198 220 152 220 c 0
 106 220 68 258 68 304 c 0
EndSplineSet
Validated: 1
EndChar

StartChar: p
Encoding: 112 112 15
Width: 298
VWidth: 0
Flags: W
HStem: 220 168<95.6758 208.324>
VStem: 68 168<247.676 360.324>
LayerCount: 3
Fore
SplineSet
68 304 m 0
 68 350 106 388 152 388 c 0
 198 388 236 350 236 304 c 0
 236 258 198 220 152 220 c 0
 106 220 68 258 68 304 c 0
EndSplineSet
Validated: 1
EndChar

StartChar: q
Encoding: 113 113 16
Width: 298
VWidth: 0
Flags: W
HStem: 220 168<95.6758 208.324>
VStem: 68 168<247.676 360.324>
LayerCount: 3
Fore
SplineSet
68 304 m 0
 68 350 106 388 152 388 c 0
 198 388 236 350 236 304 c 0
 236 258 198 220 152 220 c 0
 106 220 68 258 68 304 c 0
EndSplineSet
Validated: 1
EndChar

StartChar: r
Encoding: 114 114 17
Width: 298
VWidth: 0
Flags: W
HStem: 220 168<95.6758 208.324>
VStem: 68 168<247.676 360.324>
LayerCount: 3
Fore
SplineSet
68 304 m 0
 68 350 106 388 152 388 c 0
 198 388 236 350 236 304 c 0
 236 258 198 220 152 220 c 0
 106 220 68 258 68 304 c 0
EndSplineSet
Validated: 1
EndChar

StartChar: s
Encoding: 115 115 18
Width: 298
VWidth: 0
Flags: W
HStem: 220 168<95.6758 208.324>
VStem: 68 168<247.676 360.324>
LayerCount: 3
Fore
SplineSet
68 304 m 0
 68 350 106 388 152 388 c 0
 198 388 236 350 236 304 c 0
 236 258 198 220 152 220 c 0
 106 220 68 258 68 304 c 0
EndSplineSet
Validated: 1
EndChar

StartChar: t
Encoding: 116 116 19
Width: 298
VWidth: 0
Flags: W
HStem: 220 168<95.6758 208.324>
VStem: 68 168<247.676 360.324>
LayerCount: 3
Fore
SplineSet
68 304 m 0
 68 350 106 388 152 388 c 0
 198 388 236 350 236 304 c 0
 236 258 198 220 152 220 c 0
 106 220 68 258 68 304 c 0
EndSplineSet
Validated: 1
EndChar

StartChar: u
Encoding: 117 117 20
Width: 298
VWidth: 0
Flags: W
HStem: 220 168<95.6758 208.324>
VStem: 68 168<247.676 360.324>
LayerCount: 3
Fore
SplineSet
68 304 m 0
 68 350 106 388 152 388 c 0
 198 388 236 350 236 304 c 0
 236 258 198 220 152 220 c 0
 106 220 68 258 68 304 c 0
EndSplineSet
Validated: 1
EndChar

StartChar: v
Encoding: 118 118 21
Width: 298
VWidth: 0
Flags: W
HStem: 220 168<95.6758 208.324>
VStem: 68 168<247.676 360.324>
LayerCount: 3
Fore
SplineSet
68 304 m 0
 68 350 106 388 152 388 c 0
 198 388 236 350 236 304 c 0
 236 258 198 220 152 220 c 0
 106 220 68 258 68 304 c 0
EndSplineSet
Validated: 1
EndChar

StartChar: w
Encoding: 119 119 22
Width: 298
VWidth: 0
Flags: W
HStem: 220 168<95.6758 208.324>
VStem: 68 168<247.676 360.324>
LayerCount: 3
Fore
SplineSet
68 304 m 0
 68 350 106 388 152 388 c 0
 198 388 236 350 236 304 c 0
 236 258 198 220 152 220 c 0
 106 220 68 258 68 304 c 0
EndSplineSet
Validated: 1
EndChar

StartChar: x
Encoding: 120 120 23
Width: 298
VWidth: 0
Flags: W
HStem: 220 168<95.6758 208.324>
VStem: 68 168<247.676 360.324>
LayerCount: 3
Fore
SplineSet
68 304 m 0
 68 350 106 388 152 388 c 0
 198 388 236 350 236 304 c 0
 236 258 198 220 152 220 c 0
 106 220 68 258 68 304 c 0
EndSplineSet
Validated: 1
EndChar

StartChar: y
Encoding: 121 121 24
Width: 298
VWidth: 0
Flags: W
HStem: 220 168<95.6758 208.324>
VStem: 68 168<247.676 360.324>
LayerCount: 3
Fore
SplineSet
68 304 m 0
 68 350 106 388 152 388 c 0
 198 388 236 350 236 304 c 0
 236 258 198 220 152 220 c 0
 106 220 68 258 68 304 c 0
EndSplineSet
Validated: 1
EndChar

StartChar: z
Encoding: 122 122 25
Width: 298
VWidth: 0
Flags: W
HStem: 220 168<95.6758 208.324>
VStem: 68 168<247.676 360.324>
LayerCount: 3
Fore
SplineSet
68 304 m 0
 68 350 106 388 152 388 c 0
 198 388 236 350 236 304 c 0
 236 258 198 220 152 220 c 0
 106 220 68 258 68 304 c 0
EndSplineSet
Validated: 1
EndChar

StartChar: zero
Encoding: 48 48 53
Width: 298
VWidth: 0
Flags: W
HStem: 220 168<95.6758 208.324>
VStem: 68 168<247.676 360.324>
LayerCount: 3
Fore
SplineSet
68 304 m 0
 68 350 106 388 152 388 c 0
 198 388 236 350 236 304 c 0
 236 258 198 220 152 220 c 0
 106 220 68 258 68 304 c 0
EndSplineSet
EndChar

StartChar: one
Encoding: 49 49 54
Width: 298
VWidth: 0
Flags: W
HStem: 220 168<95.6758 208.324>
VStem: 68 168<247.676 360.324>
LayerCount: 3
Fore
SplineSet
68 304 m 0
 68 350 106 388 152 388 c 0
 198 388 236 350 236 304 c 0
 236 258 198 220 152 220 c 0
 106 220 68 258 68 304 c 0
EndSplineSet
EndChar

StartChar: two
Encoding: 50 50 55
Width: 298
VWidth: 0
Flags: W
HStem: 220 168<95.6758 208.324>
VStem: 68 168<247.676 360.324>
LayerCount: 3
Fore
SplineSet
68 304 m 0
 68 350 106 388 152 388 c 0
 198 388 236 350 236 304 c 0
 236 258 198 220 152 220 c 0
 106 220 68 258 68 304 c 0
EndSplineSet
EndChar

StartChar: three
Encoding: 51 51 56
Width: 298
VWidth: 0
Flags: W
HStem: 220 168<95.6758 208.324>
VStem: 68 168<247.676 360.324>
LayerCount: 3
Fore
SplineSet
68 304 m 0
 68 350 106 388 152 388 c 0
 198 388 236 350 236 304 c 0
 236 258 198 220 152 220 c 0
 106 220 68 258 68 304 c 0
EndSplineSet
EndChar

StartChar: four
Encoding: 52 52 57
Width: 298
VWidth: 0
Flags: W
HStem: 220 168<95.6758 208.324>
VStem: 68 168<247.676 360.324>
LayerCount: 3
Fore
SplineSet
68 304 m 0
 68 350 106 388 152 388 c 0
 198 388 236 350 236 304 c 0
 236 258 198 220 152 220 c 0
 106 220 68 258 68 304 c 0
EndSplineSet
EndChar

StartChar: five
Encoding: 53 53 58
Width: 298
VWidth: 0
Flags: W
HStem: 220 168<95.6758 208.324>
VStem: 68 168<247.676 360.324>
LayerCount: 3
Fore
SplineSet
68 304 m 0
 68 350 106 388 152 388 c 0
 198 388 236 350 236 304 c 0
 236 258 198 220 152 220 c 0
 106 220 68 258 68 304 c 0
EndSplineSet
EndChar

StartChar: six
Encoding: 54 54 59
Width: 298
VWidth: 0
Flags: W
HStem: 220 168<95.6758 208.324>
VStem: 68 168<247.676 360.324>
LayerCount: 3
Fore
SplineSet
68 304 m 0
 68 350 106 388 152 388 c 0
 198 388 236 350 236 304 c 0
 236 258 198 220 152 220 c 0
 106 220 68 258 68 304 c 0
EndSplineSet
EndChar

StartChar: seven
Encoding: 55 55 60
Width: 298
VWidth: 0
Flags: W
HStem: 220 168<95.6758 208.324>
VStem: 68 168<247.676 360.324>
LayerCount: 3
Fore
SplineSet
68 304 m 0
 68 350 106 388 152 388 c 0
 198 388 236 350 236 304 c 0
 236 258 198 220 152 220 c 0
 106 220 68 258 68 304 c 0
EndSplineSet
EndChar

StartChar: eight
Encoding: 56 56 61
Width: 298
VWidth: 0
Flags: W
HStem: 220 168<95.6758 208.324>
VStem: 68 168<247.676 360.324>
LayerCount: 3
Fore
SplineSet
68 304 m 0
 68 350 106 388 152 388 c 0
 198 388 236 350 236 304 c 0
 236 258 198 220 152 220 c 0
 106 220 68 258 68 304 c 0
EndSplineSet
EndChar

StartChar: nine
Encoding: 57 57 62
Width: 298
VWidth: 0
Flags: W
HStem: 220 168<95.6758 208.324>
VStem: 68 168<247.676 360.324>
LayerCount: 3
Fore
SplineSet
68 304 m 0
 68 350 106 388 152 388 c 0
 198 388 236 350 236 304 c 0
 236 258 198 220 152 220 c 0
 106 220 68 258 68 304 c 0
EndSplineSet
EndChar
